<svg width="48" height="49" viewBox="0 0 48 49" fill="none" xmlns="http://www.w3.org/2000/svg">
    <path d="M29.2 42.868H23.5V37.1681C23.5 36.3481 22.82 35.6681 22 35.6681C21.18 35.6681 20.5 36.3481 20.5 37.1681V42.868H14.8C13.98 42.868 13.3 43.548 13.3 44.368C13.3 45.188 13.98 45.868 14.8 45.868H29.2C30.02 45.868 30.7001 45.188 30.7001 44.368C30.7001 43.548 30.02 42.868 29.2 42.868Z"
          fill="black"/>
    <path d="M40 24.7681V28.1681C40 34.4681 36.4 37.1681 31 37.1681H13C7.6 37.1681 4 34.4681 4 28.1681V17.368C4 11.068 7.6 8.36804 13 8.36804H18.4C18.14 9.12804 18 9.96804 18 10.868V18.6681C18 20.6081 18.64 22.2481 19.78 23.3881C20.92 24.5281 22.56 25.1681 24.5 25.1681V27.948C24.5 28.968 25.66 29.5881 26.52 29.0281L32.3 25.1681H37.5C38.4 25.1681 39.24 25.0281 40 24.7681Z"
          fill="#292D32"/>
    <path d="M44 10.868V18.6681C44 21.6481 42.48 23.8881 40 24.7681C39.24 25.0281 38.4 25.1681 37.5 25.1681H32.3L26.52 29.0281C25.66 29.5881 24.5 28.968 24.5 27.948V25.1681C22.56 25.1681 20.92 24.5281 19.78 23.3881C18.64 22.2481 18 20.6081 18 18.6681V10.868C18 9.96804 18.14 9.12804 18.4 8.36804C19.28 5.88804 21.52 4.36804 24.5 4.36804H37.5C41.4 4.36804 44 6.96804 44 10.868Z"
          fill="#D5DBF1"/>
    <path fill-rule="evenodd" clip-rule="evenodd"
          d="M23.74 14.868C23.74 15.688 24.4 16.368 25.24 16.368C26.08 16.368 26.74 15.688 26.74 14.868C26.74 14.048 26.06 13.368 25.24 13.368C24.42 13.368 23.74 14.048 23.74 14.868ZM30.88 16.368C30.04 16.368 29.38 15.688 29.38 14.868C29.38 14.048 30.06 13.368 30.88 13.368C31.7 13.368 32.38 14.048 32.38 14.868C32.38 15.688 31.7 16.368 30.88 16.368ZM36.5 16.368C35.66 16.368 35 15.688 35 14.868C35 14.048 35.68 13.368 36.5 13.368C37.32 13.368 38 14.048 38 14.868C38 15.688 37.32 16.368 36.5 16.368Z"
          fill="#292D32"/>
</svg>
