<svg width="48" height="49" viewBox="0 0 48 49" fill="none" xmlns="http://www.w3.org/2000/svg">
    <path d="M36 38.088H34.48C32.88 38.088 31.36 38.708 30.24 39.828L26.82 43.208C25.26 44.748 22.72 44.748 21.16 43.208L17.74 39.828C16.62 38.708 15.08 38.088 13.5 38.088H12C8.68 38.088 6 35.4281 6 32.1481V10.328C6 7.048 8.68 4.38806 12 4.38806H36C39.32 4.38806 42 7.048 42 10.328V32.1481C42 35.4081 39.32 38.088 36 38.088Z"
          fill="#D5DBF1"/>
    <path d="M33.16 19.508C32.78 18.968 32.14 18.668 31.38 18.668H27.48C27.22 18.668 26.98 18.568 26.82 18.368C26.66 18.168 26.58 17.908 26.62 17.628L27.1 14.508C27.3 13.588 26.68 12.528 25.76 12.228C24.9 11.908 23.88 12.348 23.48 12.948L19.6 18.708V17.988C19.6 16.588 19 16.008 17.52 16.008H16.54C15.06 16.008 14.46 16.588 14.46 17.988V27.548C14.46 28.948 15.06 29.528 16.54 29.528H17.52C18.92 29.528 19.52 28.988 19.58 27.708L22.52 29.968C22.92 30.368 23.82 30.588 24.46 30.588H28.16C29.44 30.588 30.72 29.628 31 28.448L33.34 21.328C33.6 20.688 33.54 20.028 33.16 19.508Z"
          fill="#292D32"/>
</svg>
