<svg width="48" height="49" viewBox="0 0 48 49" fill="none" xmlns="http://www.w3.org/2000/svg">
    <path d="M17 38.308H16C8 38.308 4 36.308 4 26.308V16.308C4 8.30798 8 4.30798 16 4.30798H32C40 4.30798 44 8.30798 44 16.308V26.308C44 34.308 40 38.308 32 38.308H31C30.38 38.308 29.78 38.608 29.4 39.108L26.4 43.108C25.08 44.868 22.92 44.868 21.6 43.108L18.6 39.108C18.28 38.668 17.56 38.308 17 38.308Z"
          fill="#D5DBF1"/>
    <path fill-rule="evenodd" clip-rule="evenodd"
          d="M21.4 27.808C21.6 27.888 21.8 27.9281 22 27.9281C22.58 27.9281 23.14 27.5881 23.38 27.0281L27.38 17.688C27.72 16.908 27.36 16.028 26.6 15.708C25.82 15.368 24.94 15.728 24.62 16.488L20.62 25.828C20.28 26.608 20.64 27.488 21.4 27.808ZM16 27.268C15.62 27.268 15.24 27.1279 14.94 26.8279L10.94 22.8279C10.36 22.2479 10.36 21.2879 10.94 20.7079L14.94 16.7079C15.52 16.1279 16.48 16.1279 17.06 16.7079C17.64 17.2879 17.64 18.2479 17.06 18.8279L14.12 21.768L17.06 24.708C17.64 25.288 17.64 26.2479 17.06 26.8279C16.76 27.1279 16.38 27.268 16 27.268ZM32 27.268C31.62 27.268 31.24 27.1279 30.94 26.8279C30.36 26.2479 30.36 25.288 30.94 24.708L33.88 21.768L30.94 18.8279C30.36 18.2479 30.36 17.2879 30.94 16.7079C31.52 16.1279 32.48 16.1279 33.06 16.7079L37.06 20.7079C37.64 21.2879 37.64 22.2479 37.06 22.8279L33.06 26.8279C32.76 27.1279 32.38 27.268 32 27.268Z"
          fill="#292D32"/>
</svg>
