<svg width="48" height="49" viewBox="0 0 48 49" fill="none" xmlns="http://www.w3.org/2000/svg">
    <path d="M44 15.988V30.688C43.42 30.408 42.78 30.208 42.06 30.088L41.44 29.988L40.92 28.908C39.82 26.668 38.02 25.368 36 25.368C33.98 25.368 32.18 26.668 31.08 28.908L30.54 29.988L29.94 30.088C27.56 30.488 25.84 31.808 25.22 33.688C24.62 35.588 25.24 37.668 26.94 39.388L27.56 40.008L27.5 40.248C27.1 42.028 27.26 43.388 27.64 44.368H15.62C8.33999 44.368 4 40.028 4 32.748V15.988C4 8.70804 8.33999 4.36804 15.62 4.36804H32.38C39.66 4.36804 44 8.70804 44 15.988Z"
          fill="#D5DBF1"/>
    <path d="M38.24 30.248L38.8801 31.548C39.2001 32.188 40.0201 32.7881 40.7001 32.9081L41.5601 33.048C44.1801 33.488 44.78 35.408 42.92 37.288L42.1201 38.0881C41.5801 38.6281 41.3001 39.668 41.4601 40.428L41.5601 40.908C42.2801 44.068 40.6 45.288 37.86 43.628L37.2801 43.268C36.5801 42.848 35.42 42.848 34.72 43.268L34.1401 43.628C31.3801 45.288 29.7201 44.068 30.4401 40.908L30.54 40.428C30.7 39.688 30.4201 38.6281 29.8801 38.0881L29.0801 37.288C27.2201 35.388 27.8201 33.488 30.4401 33.048L31.3 32.9081C32 32.7881 32.8001 32.188 33.1201 31.548L33.7601 30.248C35.0001 27.748 37 27.748 38.24 30.248Z"
          fill="#292D32"/>
    <path fill-rule="evenodd" clip-rule="evenodd"
          d="M32.259 16.2025C32.9138 16.71 33.0331 17.6523 32.5256 18.307L27.8967 24.2784C26.7069 25.7831 24.5132 26.0575 22.9829 24.8749L22.9724 24.8669L19.3193 21.9922C19.0936 21.8208 18.7788 21.8635 18.6074 22.0846C18.6072 22.0848 18.6076 22.0844 18.6074 22.0846L13.8483 28.2633C13.3428 28.9196 12.401 29.0419 11.7447 28.5364C11.0884 28.0309 10.9661 27.089 11.4716 26.4327L16.2331 20.2508C17.4209 18.7137 19.6233 18.4358 21.1572 19.6211L21.1676 19.6292L24.8208 22.5038C25.0488 22.677 25.3702 22.6324 25.5404 22.4214L30.1545 16.469C30.6621 15.8143 31.6043 15.6949 32.259 16.2025Z"
          fill="#292D32"/>
</svg>
