<svg width="48" height="49" viewBox="0 0 48 49" fill="none" xmlns="http://www.w3.org/2000/svg">
    <path d="M43.9192 26.0883C43.8792 26.4683 43.8193 26.8283 43.7193 27.1883C41.6394 25.4284 38.9395 24.3684 35.9997 24.3684C29.3801 24.3684 24.0004 29.7481 24.0004 36.3677C24.0004 39.3076 25.0603 42.0074 26.8202 44.0873C26.4602 44.1873 26.1003 44.2473 25.7203 44.2873C24.0204 44.4473 22.2805 44.3673 20.4806 44.0673C12.261 42.6674 5.64141 36.0078 4.28149 27.7682C2.02162 14.069 13.701 2.38966 27.4002 4.64953C35.6397 6.00945 42.2993 12.6291 43.6993 20.8486C43.9992 22.6485 44.0792 24.3884 43.9192 26.0883Z"
          fill="#D5DBF1"/>
    <path d="M43.7194 27.1882C43.4394 28.1682 42.9194 29.0481 42.1795 29.7881L29.4202 42.5474C28.6802 43.2873 27.8003 43.8073 26.8203 44.0873C25.0604 42.0074 24.0005 39.3076 24.0005 36.3677C24.0005 29.7481 29.3802 24.3684 35.9998 24.3684C38.9396 24.3684 41.6395 25.4283 43.7194 27.1882Z"
          fill="#292D32"/>
</svg>
