<svg width="48" height="48" viewBox="0 0 48 48" fill="none" xmlns="http://www.w3.org/2000/svg">
    <path d="M43.9192 25.7203C43.8792 26.1003 43.8193 26.4602 43.7193 26.8202C41.6394 25.0603 38.9395 24.0004 35.9997 24.0004C29.3801 24.0004 24.0004 29.3801 24.0004 35.9997C24.0004 38.9395 25.0603 41.6394 26.8202 43.7193C26.4602 43.8193 26.1003 43.8792 25.7203 43.9192C24.0204 44.0792 22.2805 43.9992 20.4806 43.6993C12.261 42.2993 5.64141 35.6397 4.28149 27.4002C2.02162 13.701 13.701 2.02162 27.4002 4.28149C35.6397 5.64141 42.2993 12.261 43.6993 20.4806C43.9992 22.2805 44.0792 24.0204 43.9192 25.7203Z"
          fill="#99FFAF"/>
    <path d="M43.7194 26.8202C43.4394 27.8002 42.9194 28.6801 42.1795 29.4201L29.4202 42.1793C28.6802 42.9193 27.8003 43.4393 26.8203 43.7193C25.0604 41.6394 24.0005 38.9395 24.0005 35.9997C24.0005 29.3801 29.3802 24.0004 35.9998 24.0004C38.9396 24.0004 41.6395 25.0603 43.7194 26.8202Z"
          fill="#292D32"/>
</svg>
